<svg width="24" height="28" viewBox="0 0 24 28" fill="none" xmlns="http://www.w3.org/2000/svg">
<path fill-rule="evenodd" clip-rule="evenodd" d="M10.6593 0.451353C11.013 0.159656 11.4573 0 11.9159 0C12.3762 0 12.822 0.160774 13.1763 0.454414C14.4179 1.46561 17.1059 3.97249 18.593 7.83792C19.0969 9.14758 19.4581 10.6015 19.5837 12.1908L23.3681 16.7321C23.5682 16.9676 23.7096 17.2474 23.7804 17.5483C23.8505 17.8463 23.8495 18.1566 23.7774 18.454L22.2425 25.4048L22.2418 25.4079C22.1676 25.7389 22.0104 26.0456 21.7851 26.2991C21.5597 26.5527 21.2736 26.7447 20.9536 26.8572C20.6336 26.9697 20.2902 26.999 19.9557 26.9422C19.6213 26.8855 19.3068 26.7447 19.0418 26.5329L19.0413 26.5325L15.5652 23.7517H8.26709L4.7909 26.5326L4.79042 26.533C4.52541 26.7447 4.2109 26.8856 3.87647 26.9423C3.54203 26.9991 3.19866 26.9698 2.87866 26.8573C2.55865 26.7448 2.27251 26.5528 2.04715 26.2992C1.82179 26.0457 1.66462 25.739 1.59042 25.408L1.58973 25.4049L0.0548065 18.4541C-0.0172318 18.1567 -0.0182873 17.8464 0.0518364 17.5484C0.12269 17.2472 0.264162 16.9673 0.464524 16.7317L4.17394 12.2899C4.29038 10.6593 4.65894 9.16945 5.17911 7.83023C6.68076 3.96409 9.40275 1.45781 10.6593 0.451353ZM17.6144 12.725C17.6055 12.6652 17.6021 12.6048 17.604 12.5446C17.5087 11.0649 17.1797 9.73442 16.7264 8.55604C15.4175 5.15394 13.0288 2.91409 11.9159 2.00731L11.9156 2.00754C10.7941 2.90477 8.36712 5.14637 7.04342 8.55435C6.57227 9.76735 6.23511 11.142 6.15372 12.6751C6.1538 12.7094 6.15211 12.7439 6.14865 12.7782C6.03252 15.3375 6.63028 18.3338 8.50091 21.7517H15.3251C17.1694 18.3104 17.7457 15.2963 17.6144 12.725ZM21.8278 18.0078L19.5293 15.2497C19.2808 17.463 18.5654 19.8839 17.1951 22.4943L20.2902 24.9704L21.827 18.011L21.8278 18.0078ZM4.25132 15.3174L2.00446 18.0079L2.00518 18.0111L3.54198 24.9705L6.63129 22.4991C5.24721 19.9145 4.51553 17.5146 4.25132 15.3174ZM8.91602 26.7517C8.91602 26.1994 9.36373 25.7517 9.91602 25.7517H13.916C14.4683 25.7517 14.916 26.1994 14.916 26.7517C14.916 27.304 14.4683 27.7517 13.916 27.7517H9.91602C9.36373 27.7517 8.91602 27.304 8.91602 26.7517ZM13.416 10.7517C13.416 11.5801 12.7444 12.2517 11.916 12.2517C11.0876 12.2517 10.416 11.5801 10.416 10.7517C10.416 9.92328 11.0876 9.25171 11.916 9.25171C12.7444 9.25171 13.416 9.92328 13.416 10.7517Z" fill="black" fill-opacity="0.7"/>
</svg>
