<svg width="24" height="24" viewBox="0 0 24 24" fill="none" xmlns="http://www.w3.org/2000/svg">
<path d="M13 1C13 0.447715 12.5523 0 12 0C11.4477 0 11 0.447715 11 1V11.0993L2 20.5279L2 18C2 17.4477 1.55228 17 1 17C0.447715 17 0 17.4477 0 18V23C0 23.5523 0.447715 24 1 24H6C6.55228 24 7 23.5523 7 23C7 22.4477 6.55228 22 6 22H3.35972L12.7234 12.1905C12.9009 12.0045 13 11.7572 13 11.5V1Z" fill="black" fill-opacity="0.7"/>
<path d="M15.7071 14.2929C15.3166 13.9024 14.6834 13.9024 14.2929 14.2929C13.9024 14.6834 13.9024 15.3166 14.2929 15.7071L20.5858 22H18C17.4477 22 17 22.4477 17 23C17 23.5523 17.4477 24 18 24H23C23.5523 24 24 23.5523 24 23V18C24 17.4477 23.5523 17 23 17C22.4477 17 22 17.4477 22 18V20.5858L15.7071 14.2929Z" fill="black" fill-opacity="0.7"/>
</svg>
