<svg width="32" height="32" viewBox="0 0 32 32" fill="none" xmlns="http://www.w3.org/2000/svg">
<path fill-rule="evenodd" clip-rule="evenodd" d="M0 11.7165H2.70697C3.29126 11.7165 3.84288 11.8298 4.36115 12.0559C4.87971 12.2823 5.33427 12.591 5.72524 12.9819C6.11615 13.3729 6.42454 13.8275 6.65126 14.3457C6.78982 14.6636 6.88563 14.9937 6.93929 15.3363C7.07017 14.4397 7.47378 13.6526 8.1509 12.9757C8.97378 12.1361 9.98169 11.7165 11.1751 11.7165C12.3603 11.7165 13.3682 12.1361 14.1996 12.9757C14.8125 13.5827 15.2025 14.2782 15.3723 15.0617V11.7165L19.6556 15.9999L23.9516 11.7165V15.0571C24.1203 14.2756 24.5065 13.5813 25.112 12.9757C25.9351 12.1361 26.9434 11.7165 28.1368 11.7165C29.3219 11.7165 30.3295 12.1361 31.1609 12.9757C31.5148 13.3259 31.7936 13.7065 32 14.1157V0H0V11.7165ZM28.1368 20.2835C26.9516 20.2835 25.9434 19.864 25.112 19.0243C24.5064 18.4247 24.1202 17.7322 23.9516 16.9479V20.2834H22.507V15.1605L19.6556 18.0243L16.7921 15.1605V20.2835H15.3723V16.9482C15.2025 17.7369 14.8125 18.4293 14.1996 19.0243C13.3682 19.8639 12.3603 20.2835 11.1751 20.2835C9.99033 20.2835 8.98204 19.864 8.15094 19.0243C7.47318 18.3536 7.06959 17.567 6.93894 16.6658C6.88505 17.0076 6.78947 17.3371 6.65126 17.6541C6.42454 18.1726 6.1182 18.6276 5.73145 19.0182C5.34467 19.4091 4.89004 19.7177 4.36736 19.9439C3.8447 20.1706 3.29136 20.2835 2.70701 20.2835H0V32H32V17.8961C31.7936 18.3044 31.5147 18.6809 31.1609 19.0243C30.3295 19.864 29.3219 20.2835 28.1368 20.2835ZM4.72528 18.0122C4.98473 17.7486 5.18844 17.4444 5.33641 17.0986C5.48473 16.7528 5.55871 16.3869 5.55871 15.9998C5.55871 15.6133 5.48473 15.2469 5.33641 14.9014C5.18841 14.5556 4.98265 14.2513 4.71939 13.9877C4.45577 13.7244 4.15129 13.5187 3.80572 13.3707C3.46022 13.2224 3.09376 13.1484 2.70697 13.1484H1.2751V18.8515H2.70697C3.10201 18.8515 3.4726 18.7775 3.81811 18.6292C4.16364 18.4812 4.46611 18.2755 4.72528 18.0122ZM30.1485 18.0243C30.7081 17.4565 30.9882 16.782 30.9882 15.9999C30.9882 15.2183 30.7081 14.5476 30.1485 13.9878C29.5891 13.4282 28.9186 13.1484 28.1368 13.1484C27.355 13.1484 26.6799 13.4282 26.1121 13.9878C25.5607 14.5476 25.2854 15.2183 25.2854 15.9999C25.2854 16.782 25.5607 17.4565 26.1121 18.0243C26.6799 18.576 27.3549 18.8516 28.1368 18.8516C28.9186 18.8516 29.589 18.576 30.1485 18.0243ZM13.1875 18.0243C13.747 17.4565 14.0268 16.782 14.0268 15.9999C14.0268 15.2183 13.7471 14.5476 13.1875 13.9878C12.6277 13.4282 11.957 13.1484 11.1751 13.1484C10.3933 13.1484 9.71845 13.4282 9.15065 13.9878C8.59932 14.5476 8.3237 15.2183 8.3237 15.9999C8.3237 16.782 8.59932 17.4565 9.15065 18.0243C9.71845 18.576 10.3933 18.8516 11.1751 18.8516C11.957 18.8516 12.6277 18.576 13.1875 18.0243Z" fill="#99CCEE"/>
</svg>
